<svg t="1592712526214" class="icon" viewBox="0 0 1024 1024" version="1.1" xmlns="http://www.w3.org/2000/svg" p-id="9549" width="28" height="28"><path d="M337.654718 591.304184l97.820909 97.820909c7.638981 7.638981 17.655102 11.461029 27.666106 11.461029 10.012028 0 20.023032-3.822049 27.663036-11.461029l195.635679-195.623399c15.285125-15.282055 15.285125-40.056298 0-55.334259-15.277962-15.284101-40.045041-15.284101-55.330166 0L463.141734 606.127797l-70.15378-70.154803c-15.276938-15.268752-40.050158-15.268752-55.333236 0C322.38085 551.253002 322.38085 576.029292 337.654718 591.304184L337.654718 591.304184zM864.53666 125.301797 693.412235 125.301797c6.258541 8.995885 9.93835 19.919678 9.93835 31.714306 0 11.787464-3.679809 22.711258-9.93835 31.709189L832.821331 188.725292l0 704.145182L191.176622 892.870474 191.176622 188.725292l138.492214 0c-6.258541-8.996908-9.93835-19.921725-9.93835-31.709189 0-11.793604 3.680832-22.718421 9.93835-31.714306l-170.20652 0c-17.513886 0-31.713282 14.195304-31.713282 31.714306l0 767.567653c0 17.512862 14.198374 31.713282 31.713282 31.713282l705.07332 0c17.512862 0 31.713282-14.20042 31.713282-31.713282L896.248919 157.016103C896.249943 139.497101 882.049522 125.301797 864.53666 125.301797L864.53666 125.301797zM444.876742 253.512854l131.965567 0c33.894971 0 61.377906-27.480888 61.377906-61.376882l0-5.457292c0-33.895995-27.482935-61.376882-61.377906-61.376882l-2.593058 0c2.104941-5.27719 3.27151-11.027148 3.27151-17.051351 0-25.425066-20.60734-46.035476-46.030359-46.035476l-38.875402 0c-25.426089 0-46.032406 20.61041-46.032406 46.035476 0 6.024204 1.169639 11.774161 3.275603 17.051351l-4.981455 0c-33.901111 0-61.380976 27.480888-61.380976 61.376882l0 5.457292C383.494743 226.031966 410.975631 253.512854 444.876742 253.512854L444.876742 253.512854zM444.876742 253.512854" p-id="9550" fill="#1296db"></path></svg>